<svg xmlns="http://www.w3.org/2000/svg" width="187" height="36" viewBox="0 0 187 36" fill="none">
  <mask id="mask0_6100_20901" style="mask-type:luminance" maskUnits="userSpaceOnUse" x="0" y="0" width="187" height="36">
    <path d="M187 0.0209961H0V35.0524H187V0.0209961Z" fill="white"/>
  </mask>
  <g mask="url(#mask0_6100_20901)">
    <path d="M36.742 9.828C36.3024 9.7495 35.8366 9.7024 35.3604 9.69717L35.4651 4.11328C36.2396 4.12898 36.9984 4.20225 37.7258 4.33308L36.742 9.828ZM33.6387 9.91173L32.189 4.51624C32.9322 4.31738 33.7015 4.18655 34.476 4.12898H34.6225L34.6591 5.73559L34.7586 7.86553L34.8999 9.69717C34.4708 9.72857 34.0469 9.80183 33.6334 9.91173M38.4585 10.3618C38.0712 10.1839 37.6578 10.0373 37.2287 9.93266L38.5684 4.51101C39.3429 4.69941 40.0913 4.9663 40.7978 5.29076L38.4585 10.3618ZM31.9902 10.5921L29.1904 5.76176C29.8707 5.36403 30.5981 5.03433 31.3413 4.7779L33.1729 10.053C32.7647 10.1943 32.367 10.3775 31.9902 10.5921ZM39.9186 11.2985C39.5993 11.0264 39.2539 10.7805 38.8876 10.5764L41.5984 5.69373C42.2997 6.08099 42.9643 6.54675 43.5662 7.07007L39.9133 11.2985H39.9186ZM30.572 11.6858L26.6156 7.74516C27.1704 7.1852 27.7826 6.67758 28.4316 6.23798L31.5715 10.8537C31.2104 11.0997 30.8755 11.377 30.5667 11.6858M41.0594 12.6121C40.8239 12.2562 40.557 11.9213 40.2587 11.623L44.2255 7.69283C44.7855 8.25279 45.2879 8.88078 45.7275 9.55064L41.0594 12.6173V12.6121ZM29.4782 13.1093L24.6427 10.3199C25.0352 9.6396 25.4957 8.99068 26.0086 8.39409L30.2318 12.0469C29.9492 12.3766 29.6928 12.7325 29.4782 13.1093ZM41.8339 14.2292C41.6926 13.8105 41.5199 13.4075 41.3054 13.0308L46.1828 10.3147C46.5596 10.995 46.8788 11.7224 47.13 12.4708L41.8287 14.2344L41.8339 14.2292ZM28.7927 14.763L23.3972 13.3238C23.6013 12.565 23.8786 11.8166 24.224 11.1101L29.248 13.5488C29.0596 13.9413 28.9078 14.3495 28.7927 14.7682M42.1898 16.0294C42.1584 15.5846 42.0851 15.1398 41.97 14.7106L47.376 13.3133C47.5696 14.0617 47.6952 14.8362 47.7528 15.6108L42.1846 16.0242L42.1898 16.0294ZM22.9785 16.5423C22.9785 15.7416 23.0518 14.9566 23.1983 14.1925L28.6828 15.2392C28.6043 15.6578 28.5624 16.0922 28.5624 16.5213L22.9785 16.537V16.5423ZM47.6062 18.8187L42.1061 17.8611C42.1793 17.4476 42.216 17.0185 42.216 16.5946V16.537L47.7999 16.4899V16.5946C47.7999 17.343 47.7371 18.0913 47.6115 18.8187M23.4233 19.8078C23.2192 19.0542 23.0832 18.2692 23.0256 17.4843V17.4267L28.5938 17.0342L25.8097 17.2278L28.5938 17.0394C28.6304 17.4895 28.7037 17.9238 28.8136 18.3373L23.4233 19.8026V19.8078ZM46.6485 21.9116L41.5775 19.5723C41.7554 19.1851 41.902 18.7716 42.0066 18.3477L47.4283 19.6822C47.2399 20.4515 46.973 21.2051 46.6485 21.9116ZM24.6793 22.8012C24.2816 22.1209 23.9467 21.3987 23.685 20.6556L28.9549 18.8083C29.0962 19.2165 29.2794 19.6142 29.4992 19.9858L24.6793 22.8012ZM44.8745 24.6748L40.6408 21.0324C40.9129 20.7132 41.1589 20.3678 41.363 19.9962L46.2456 22.707C45.8583 23.4083 45.3926 24.0729 44.8745 24.6748ZM26.668 25.3603C26.108 24.8056 25.6004 24.1933 25.1556 23.5496L29.7608 20.3939C30.0068 20.7498 30.2894 21.09 30.5981 21.3935L26.668 25.3603ZM42.3991 26.8413L39.3377 22.1733C39.6935 21.9378 40.0232 21.6709 40.3215 21.3778L44.2622 25.3341C43.697 25.8941 43.0742 26.4017 42.3991 26.8413ZM29.248 27.3228C28.5676 26.9303 27.9187 26.475 27.3221 25.9621L30.9592 21.7284C31.2889 22.011 31.6448 22.2622 32.0216 22.482L29.2427 27.328L29.248 27.3228ZM39.4947 28.2491L37.7101 22.9582C38.1393 22.8117 38.5475 22.6338 38.9243 22.4245L41.6403 27.3018C40.9705 27.6734 40.2483 27.9926 39.4999 28.2438M32.2571 28.5526C31.493 28.3537 30.7499 28.0764 30.0382 27.731L32.4612 22.7018C32.8537 22.8902 33.2619 23.042 33.6805 23.1519L32.2571 28.5526ZM36.3652 28.9242L36.1454 26.0249L35.8366 23.3664C36.3181 23.3089 36.7891 23.2199 37.2234 23.1048L38.6783 28.495C37.977 28.6834 37.2391 28.8247 36.4803 28.9137L36.3652 28.9242ZM35.4127 28.9608C34.6434 28.9608 33.8742 28.8875 33.1206 28.7462L34.1515 23.2565C34.5649 23.335 34.9888 23.3717 35.4127 23.3717L35.5017 28.9556H35.4127V28.9608Z" fill="#F7DD5D"/>
  </g>
  <mask id="mask1_6100_20901" style="mask-type:luminance" maskUnits="userSpaceOnUse" x="22" y="4" width="26" height="25">
    <path d="M33.1206 28.7463C33.8742 28.8876 34.6434 28.9609 35.4127 28.9609H35.5017L35.4127 23.377C34.9888 23.377 34.5649 23.3351 34.1515 23.2619L33.1206 28.7516V28.7463ZM35.8314 23.3665L36.1402 26.025L36.36 28.9243L36.4751 28.9138C37.2339 28.8248 37.9718 28.6835 38.6731 28.4951L37.2182 23.1049C36.7839 23.2252 36.3181 23.309 35.8314 23.3665ZM30.0329 27.7311C30.7447 28.0712 31.4878 28.3486 32.2518 28.5527L33.6753 23.152C33.2566 23.0421 32.8484 22.8903 32.4559 22.7019L30.0329 27.7311ZM37.7101 22.9531L39.4947 28.2439C40.243 27.9927 40.9652 27.6735 41.6351 27.302L38.919 22.4193C38.5422 22.6287 38.134 22.8066 37.7049 22.9531M27.3169 25.957C27.9135 26.4699 28.5624 26.9304 29.2427 27.3177L32.0216 22.4717C31.6448 22.2571 31.2837 22.0007 30.9592 21.7181L27.3221 25.9518L27.3169 25.957ZM39.3324 22.1681L42.3939 26.8362C43.0638 26.3966 43.6918 25.889 44.2569 25.329L40.3163 21.3727C40.018 21.6657 39.6883 21.9379 39.3324 22.1681ZM25.1503 23.5392C25.5951 24.1882 26.1028 24.7952 26.6627 25.3499L30.5929 21.3831C30.2841 21.0796 30.0015 20.7394 29.7556 20.3836L25.1503 23.5392ZM40.6355 21.022L44.8692 24.6644C45.3873 24.0626 45.8531 23.3979 46.2403 22.6967L41.3577 19.9859C41.1536 20.3574 40.9077 20.708 40.6355 21.022ZM23.6798 20.64C23.9414 21.3831 24.2764 22.1053 24.6741 22.7909L29.4939 19.9754C29.2741 19.6038 29.091 19.2061 28.9497 18.7979L23.6798 20.6453V20.64ZM41.5723 19.5567L46.6433 21.896C46.973 21.1843 47.2347 20.4359 47.4231 19.6666L42.0014 18.3322C41.8967 18.756 41.7502 19.1695 41.5723 19.5567ZM25.794 17.2175L23.0099 17.4111V17.4687C23.0727 18.2537 23.2035 19.0386 23.4129 19.7922L28.8031 18.3269C28.688 17.9083 28.6147 17.4791 28.5781 17.0291L25.794 17.2175ZM42.2107 16.5214V16.579C42.2107 17.0081 42.1741 17.432 42.1008 17.8455L47.601 18.8031C47.7266 18.0757 47.7946 17.3221 47.7946 16.579V16.4743L42.2107 16.5214ZM22.9785 16.5267L28.5624 16.511C28.5624 16.0818 28.6043 15.6475 28.6828 15.2288L23.1983 14.1822C23.0518 14.9462 22.9785 15.7312 22.9785 16.5319M41.9752 14.7055C42.0851 15.1346 42.1584 15.5795 42.1898 16.0243L47.758 15.6109C47.7004 14.8363 47.5748 14.0618 47.3812 13.3135L41.9752 14.7107V14.7055ZM23.3972 13.3187L28.7927 14.7578C28.9026 14.3392 29.0596 13.931 29.248 13.5385L24.224 11.0998C23.8786 11.8115 23.6013 12.5546 23.3972 13.3135M41.3054 13.0204C41.5147 13.3972 41.6926 13.8001 41.8339 14.2188L47.1352 12.4552C46.884 11.7068 46.57 10.9794 46.188 10.2991L41.3106 13.0152L41.3054 13.0204ZM24.6375 10.3148L29.473 13.1041C29.6876 12.7273 29.944 12.3715 30.2266 12.0418L26.0033 8.38896C25.4905 8.98555 25.03 9.63448 24.6375 10.3148ZM40.2535 11.6179C40.5518 11.9162 40.8187 12.2511 41.0542 12.607L45.7223 9.54028C45.2827 8.87042 44.775 8.24766 44.2203 7.68247L40.2535 11.6126V11.6179ZM26.6052 7.74004L30.5615 11.6807C30.865 11.3719 31.2052 11.0946 31.5663 10.8486L28.4263 6.23286C27.7774 6.67768 27.1651 7.18531 26.6104 7.74004M38.8824 10.5712C39.2487 10.7753 39.5993 11.0161 39.9133 11.2934L43.5662 7.06495C42.9591 6.54162 42.2997 6.08109 41.5984 5.6886L38.8876 10.5712H38.8824ZM29.1852 5.75663L31.985 10.5869C32.3617 10.3724 32.7542 10.1892 33.1677 10.0479L31.336 4.77278C30.5929 5.02921 29.8655 5.36414 29.1852 5.75663ZM37.2287 9.92754C37.6578 10.0322 38.0712 10.1787 38.4585 10.3567L40.7978 5.28564C40.0913 4.96118 39.3429 4.69951 38.5684 4.50588L37.2287 9.92754ZM34.4708 4.12385C33.6962 4.18142 32.9269 4.31225 32.1838 4.51112L33.6334 9.9066C34.0416 9.79671 34.4708 9.72344 34.8999 9.69204L34.7586 7.85517L34.6591 5.72523L34.6225 4.11339H34.476L34.4708 4.12385ZM35.3499 9.69204C35.8262 9.70251 36.2919 9.74437 36.7315 9.82287L37.7154 4.32795C36.9879 4.19712 36.2239 4.12385 35.4494 4.10815L35.3447 9.69204H35.3499Z" fill="white"/>
  </mask>
  <g mask="url(#mask1_6100_20901)">
    <path d="M44.9219 19.3948C44.9219 24.6751 40.641 28.9612 35.3555 28.9612C30.0699 28.9612 25.7891 24.6804 25.7891 19.3948C25.7891 14.1092 30.0699 9.82837 35.3555 9.82837C40.641 9.82837 44.9219 14.1092 44.9219 19.3948Z" fill="#FDF6D1"/>
  </g>
  <mask id="mask2_6100_20901" style="mask-type:luminance" maskUnits="userSpaceOnUse" x="0" y="0" width="187" height="36">
    <path d="M187 0.0209961H0V35.0524H187V0.0209961Z" fill="white"/>
  </mask>
  <g mask="url(#mask2_6100_20901)">
    <path d="M11.4294 28.0189C11.33 28.0189 11.2306 28.0189 11.1259 28.0189C7.31086 27.9666 3.65281 26.7106 0.251196 24.2928L0.109898 24.1934V18.5101L0.643691 18.9078C4.3593 21.6762 7.94932 23.0787 11.3195 23.0787C12.8215 23.0787 14.0094 22.7804 14.852 22.1838C15.6684 21.6082 16.0661 20.9122 16.0661 20.0539C16.0661 19.1276 15.5375 18.3688 14.4543 17.7251C13.3082 17.0448 11.4922 16.4116 9.06924 15.8359C5.98161 15.0875 3.67898 14.0985 2.2346 12.8843C0.753589 11.6388 0 10.0061 0 8.02788C0 5.63628 0.983852 3.67904 2.92016 2.2085C4.82506 0.758885 7.21666 0.0209961 10.0269 0.0209961C13.507 0.0209961 16.9139 0.989149 20.1585 2.88882L20.3207 2.98302V8.54597L19.7974 8.17441C18.4525 7.22719 16.8773 6.42127 15.1032 5.77235C13.3396 5.12866 11.6335 4.79896 10.0269 4.79896C8.62441 4.79896 7.44169 5.10772 6.50494 5.72001C5.60482 6.30614 5.16523 7.04926 5.16523 7.98078C5.16523 8.9123 5.67285 9.53506 6.70904 10.027C7.83942 10.5608 9.74956 11.1364 12.3871 11.7383C18.2588 13.1198 21.2366 15.9144 21.2366 20.0382C21.2366 22.5554 20.2422 24.5545 18.2745 25.978C16.4115 27.3281 14.1036 28.0085 11.4294 28.0085" fill="white"/>
  </g>
  <path d="M54.5315 0.355957H49.7012V27.7207H54.5315V0.355957Z" fill="white"/>
  <mask id="mask3_6100_20901" style="mask-type:luminance" maskUnits="userSpaceOnUse" x="0" y="0" width="187" height="36">
    <path d="M187 0.0209961H0V35.0524H187V0.0209961Z" fill="white"/>
  </mask>
  <g mask="url(#mask3_6100_20901)">
    <path d="M69.7744 23.6858C71.7316 23.6858 73.3958 22.9845 74.7512 21.5872C76.1066 20.19 76.787 18.5101 76.787 16.5476C76.787 14.5851 76.1066 12.9576 74.7512 11.5708C73.3906 10.184 71.7316 9.49318 69.7744 9.49318C67.8172 9.49318 66.1844 10.1944 64.7976 11.5917C63.4108 12.9942 62.72 14.6427 62.72 16.5476C62.72 18.4525 63.4108 20.1533 64.7976 21.5663C66.1844 22.9793 67.8433 23.6858 69.7744 23.6858ZM58.2246 34.8535V5.45834H63.0549V8.35756C64.8447 6.17529 67.2415 5.08154 70.2349 5.08154C73.2284 5.08154 75.8659 6.21716 78.0482 8.48316C80.2305 10.7492 81.3242 13.4391 81.3242 16.5476C81.3242 19.6562 80.2409 22.4926 78.0691 24.7167C75.8973 26.9409 73.2859 28.0555 70.2349 28.0555C67.1839 28.0555 64.8185 26.9356 63.0549 24.6958V34.8535H58.2246Z" fill="white"/>
  </g>
  <path d="M89.1799 0.355957H84.3496V27.7207H89.1799V0.355957Z" fill="white"/>
  <mask id="mask4_6100_20901" style="mask-type:luminance" maskUnits="userSpaceOnUse" x="0" y="0" width="187" height="36">
    <path d="M187 0.0209961H0V35.0524H187V0.0209961Z" fill="white"/>
  </mask>
  <g mask="url(#mask4_6100_20901)">
    <path d="M103.462 23.6439C105.393 23.6439 107.047 22.9427 108.418 21.5454C109.789 20.1481 110.474 18.4787 110.474 16.5476C110.474 14.6165 109.789 12.9471 108.418 11.5498C107.047 10.1526 105.393 9.45131 103.462 9.45131C101.531 9.45131 99.8405 10.1526 98.4851 11.5498C97.1244 12.9524 96.4493 14.6165 96.4493 16.5476C96.4493 18.4787 97.1192 20.1795 98.4641 21.5663C99.8091 22.9531 101.473 23.6439 103.462 23.6439ZM103.001 28.0555C99.9504 28.0555 97.339 26.9199 95.1672 24.6539C92.9954 22.3879 91.9121 19.6823 91.9121 16.5476C91.9121 13.4129 92.9954 10.6445 95.1672 8.42036C97.339 6.19623 99.9504 5.08154 103.001 5.08154C106.052 5.08154 108.418 6.20146 110.181 8.44129V5.45834H115.012V27.7206H110.181V24.7377C108.386 26.9513 105.995 28.0555 103.001 28.0555Z" fill="white"/>
    <path d="M123.866 5.45825C126.77 14.5275 128.764 20.9435 129.225 23.0943H129.267C129.858 20.7184 131.297 15.684 134.411 5.45825H139.492L131.768 28.5369C129.575 34.9895 126.561 35.0209 123.029 35.0209C122.411 35.0209 121.343 34.9791 120.375 34.8639V30.6616C120.862 30.7192 125.357 32.2473 126.613 28.4794L118.402 5.45825H123.866Z" fill="white"/>
  </g>
</svg>